# xmcd
#
# Track frame offsets: 
#        150
#        10835
#        22130
#        33002
#        42945
#        54335
#        66712
#        75785
#        86317
#        99152
#        112307
#        122270
#        134017
#        144897
#        155362
#        166715
#        177262
#        188887
#        199682
#        211195
#
# Disc length: 2952 seconds
#
# Revision: 2
# Processed by: cddbd v1.5.2PL0 Copyright (c) Steve Scherf et al.
# Submitted via: ExactAudioCopy v0.99pb5
#
DISCID=fb0b8614
DTITLE=Shirley and Lee - Legendary Masters Series
DYEAR=1990
DGENRE=
TTITLE0=I'm Gone
TTITLE1=Sweethearts
TTITLE2=Baby
TTITLE3=Why Did I
TTITLE4=Confessin'
TTITLE5=Keep On
TTITLE6=Comin' Over
TTITLE7=Takes Money
TTITLE8=Feel So Good
TTITLE9=Lee's Dream
TTITLE10=Deed I Do
TTITLE11=That's What I'll Do
TTITLE12=Let The Good Times Roll
TTITLE13=I Feel Good
TTITLE14=When I Saw You
TTITLE15=I Want To Dance
TTITLE16=Rock All Night
TTITLE17=Don't You Know I Love You
TTITLE18=I'll Thrill You
TTITLE19=Everybody's Rockin'
EXTD=
EXTT0=
EXTT1=
EXTT2=
EXTT3=
EXTT4=
EXTT5=
EXTT6=
EXTT7=
EXTT8=
EXTT9=
EXTT10=
EXTT11=
EXTT12=
EXTT13=
EXTT14=
EXTT15=
EXTT16=
EXTT17=
EXTT18=
EXTT19=
PLAYORDER=
